<svg height="512" viewBox="0 0 64 64" width="512" xmlns="http://www.w3.org/2000/svg"><g id="Advertising-7" data-name="Advertising"><path d="m3 43h58a0 0 0 0 1 0 0v4a2 2 0 0 1 -2 2h-54a2 2 0 0 1 -2-2v-4a0 0 0 0 1 0 0z" fill="#a7a9ac"/><path d="m5 11h54a2 2 0 0 1 2 2v30a0 0 0 0 1 0 0h-58a0 0 0 0 1 0 0v-30a2 2 0 0 1 2-2z" fill="#00479b"/><path d="m6 14h52a0 0 0 0 1 0 0v26a0 0 0 0 1 0 0h-50a2 2 0 0 1 -2-2v-24a0 0 0 0 1 0 0z" fill="#ffcd00"/><path d="m26 49h12v6h-12z" fill="#6d6e71"/><path d="m21 55a2 2 0 0 0 -2 2v4h26v-4a2 2 0 0 0 -2-2z" fill="#a7a9ac"/><path d="m54 7v20a4 4 0 0 1 -4 4h-10l-7 6v-6h-9a4 4 0 0 1 -4-4v-20a4 4 0 0 1 4-4h26a4 4 0 0 1 4 4z" fill="#ff9811"/><path d="m28 20h6v-8h-6a4 4 0 0 0 0 8z" fill="#ed1c24"/><path d="m47 25v-6-6-6h-4v18z" fill="#808285"/><path d="m43 25v-18l-9 5v8z" fill="#e6e7e8"/><path d="m41 8.111v15.778l2 1.111v-18z" fill="#d1d3d4"/><path d="m30 26a2 2 0 0 0 4 0v-6h-4z" fill="#58595b"/><path d="m50 16a3 3 0 0 0 -3-3v6a3 3 0 0 0 3-3z" fill="#ed1c24"/><path d="m56 14v12a12 12 0 0 1 -12 12h-38v2h52v-26z" fill="#ebbf00"/><path d="m26 49h12v2h-12z" fill="#58595b"/><path d="m3 38.004v8.996 8h18v-6-6-3-2z" fill="#ffdaaa"/><path d="m18 38v7a8 8 0 0 1 -8 8h-7v2h18v-17z" fill="#ffc477"/><path d="m19 32h-14a2 2 0 0 0 -2 2v4h18v-4a2 2 0 0 0 -2-2z" fill="#006df0"/><path d="m3 59a2 2 0 0 0 2 2h14a2 2 0 0 0 2-2v-4h-18z" fill="#006df0"/><g fill="#231f20"><path d="m13 57h-2a1 1 0 0 0 0 2h2a1 1 0 0 0 0-2z"/><path d="m13 34h-2a1 1 0 0 0 0 2h2a1 1 0 0 0 0-2z"/><path d="m7 43h1a1 1 0 0 0 0-2h-1a1 1 0 0 0 0 2z"/><path d="m11 43h6a1 1 0 0 0 0-2h-6a1 1 0 0 0 0 2z"/><path d="m7 46h1a1 1 0 0 0 0-2h-1a1 1 0 0 0 0 2z"/><path d="m11 46h6a1 1 0 0 0 0-2h-6a1 1 0 0 0 0 2z"/><path d="m7 49h1a1 1 0 0 0 0-2h-1a1 1 0 0 0 0 2z"/><path d="m11 49h6a1 1 0 0 0 0-2h-6a1 1 0 0 0 0 2z"/><path d="m7 52h1a1 1 0 0 0 0-2h-1a1 1 0 0 0 0 2z"/><path d="m11 52h6a1 1 0 0 0 0-2h-6a1 1 0 0 0 0 2z"/><path d="m59 10h-4v-3a5 5 0 0 0 -5-5h-26a5 5 0 0 0 -5 5v3h-14a3.009 3.009 0 0 0 -3 3v46a3.009 3.009 0 0 0 3 3h40a1 1 0 0 0 1-1v-4a3.009 3.009 0 0 0 -3-3h-4v-4h20a3.009 3.009 0 0 0 3-3v-34a3.009 3.009 0 0 0 -3-3zm-38-3a3.009 3.009 0 0 1 3-3h26a3.009 3.009 0 0 1 3 3v20a3.009 3.009 0 0 1 -3 3h-10a1.021 1.021 0 0 0 -.65.24l-5.35 4.59v-3.83a1 1 0 0 0 -1-1h-9a3.009 3.009 0 0 1 -3-3zm-17 6a1 1 0 0 1 1-1h14v1h-13a1 1 0 0 0 -1 1v17a3 3 0 0 0 -1 .18zm16 46a1 1 0 0 1 -1 1h-14a1 1 0 0 1 -1-1v-3h16zm0-5h-16v-15h16zm0-17h-16v-3a1 1 0 0 1 1-1h14a1 1 0 0 1 1 1zm-1-6h-12v-16h12v12a5 5 0 0 0 5 5h8v5a1 1 0 0 0 .58.91 1.059 1.059 0 0 0 .42.09.987.987 0 0 0 .65-.24l6.72-5.76h9.63a5 5 0 0 0 5-5v-12h2v24h-35v-5a3.009 3.009 0 0 0 -3-3zm3 19h3v4h-3zm21 6a1 1 0 0 1 1 1v3h-22.18a3 3 0 0 0 .18-1v-3zm-16-2v-4h10v4zm33-7a1 1 0 0 1 -1 1h-37v-4h38zm0-5h-38v-1h36a1 1 0 0 0 1-1v-26a1 1 0 0 0 -1-1h-3v-1h4a1 1 0 0 1 1 1z"/><path d="m48 12.14v-5.14a1 1 0 0 0 -1-1h-4a.947.947 0 0 0 -.49.13l-8.77 4.87h-5.74a5 5 0 0 0 0 10h1v5a3 3 0 0 0 6 0v-4.3l7.51 4.17a.947.947 0 0 0 .49.13h4a1 1 0 0 0 1-1v-5.14a3.983 3.983 0 0 0 0-7.72zm-15 13.86a1 1 0 0 1 -2 0v-5h2zm0-7h-5a3 3 0 0 1 0-6h5zm9 4.3-7-3.89v-6.82l7-3.89zm4 .7h-2v-16h2zm2-6.27v-3.46a2 2 0 0 1 0 3.46z"/><path d="m55 45h-2a1 1 0 0 0 0 2h2a1 1 0 0 0 0-2z"/></g></g></svg>