<svg height="512" viewBox="0 0 64 64" width="512" xmlns="http://www.w3.org/2000/svg"><g id="Advertising-7" data-name="Advertising"><path d="m3 43h58a0 0 0 0 1 0 0v4a2 2 0 0 1 -2 2h-54a2 2 0 0 1 -2-2v-4a0 0 0 0 1 0 0z" fill="#a7a9ac"/><path d="m5 11h54a2 2 0 0 1 2 2v30a0 0 0 0 1 0 0h-58a0 0 0 0 1 0 0v-30a2 2 0 0 1 2-2z" fill="#00479b"/><path d="m6 14h52a0 0 0 0 1 0 0v26a0 0 0 0 1 0 0h-50a2 2 0 0 1 -2-2v-24a0 0 0 0 1 0 0z" fill="#ffcd00"/><path d="m26 49h12v6h-12z" fill="#6d6e71"/><path d="m21 55a2 2 0 0 0 -2 2v4h26v-4a2 2 0 0 0 -2-2z" fill="#a7a9ac"/><path d="m54 7v20a4 4 0 0 1 -4 4h-10l-7 6v-6h-9a4 4 0 0 1 -4-4v-20a4 4 0 0 1 4-4h26a4 4 0 0 1 4 4z" fill="#ff9811"/><path d="m28 20h6v-8h-6a4 4 0 0 0 0 8z" fill="#ed1c24"/><path d="m47 25v-6-6-6h-4v18z" fill="#808285"/><path d="m43 25v-18l-9 5v8z" fill="#e6e7e8"/><path d="m41 8.111v15.778l2 1.111v-18z" fill="#d1d3d4"/><path d="m30 26a2 2 0 0 0 4 0v-6h-4z" fill="#58595b"/><path d="m50 16a3 3 0 0 0 -3-3v6a3 3 0 0 0 3-3z" fill="#ed1c24"/><path d="m56 14v12a12 12 0 0 1 -12 12h-38v2h52v-26z" fill="#ebbf00"/><path d="m26 49h12v2h-12z" fill="#58595b"/><path d="m3 38.004v8.996 8h18v-6-6-3-2z" fill="#ffdaaa"/><path d="m18 38v7a8 8 0 0 1 -8 8h-7v2h18v-17z" fill="#ffc477"/><path d="m19 32h-14a2 2 0 0 0 -2 2v4h18v-4a2 2 0 0 0 -2-2z" fill="#006df0"/><path d="m3 59a2 2 0 0 0 2 2h14a2 2 0 0 0 2-2v-4h-18z" fill="#006df0"/><path d="m13 57h-2a1 1 0 0 0 0 2h2a1 1 0 0 0 0-2z" fill="#f1f2f2"/><path d="m13 34h-2a1 1 0 0 0 0 2h2a1 1 0 0 0 0-2z" fill="#f1f2f2"/><g fill="#ff5023"><path d="m7 43h1a1 1 0 0 0 0-2h-1a1 1 0 0 0 0 2z"/><path d="m11 43h6a1 1 0 0 0 0-2h-6a1 1 0 0 0 0 2z"/><path d="m7 46h1a1 1 0 0 0 0-2h-1a1 1 0 0 0 0 2z"/><path d="m11 46h6a1 1 0 0 0 0-2h-6a1 1 0 0 0 0 2z"/><path d="m7 49h1a1 1 0 0 0 0-2h-1a1 1 0 0 0 0 2z"/><path d="m11 49h6a1 1 0 0 0 0-2h-6a1 1 0 0 0 0 2z"/><path d="m7 52h1a1 1 0 0 0 0-2h-1a1 1 0 0 0 0 2z"/><path d="m11 52h6a1 1 0 0 0 0-2h-6a1 1 0 0 0 0 2z"/></g><path d="m55 45h-2a1 1 0 0 0 0 2h2a1 1 0 0 0 0-2z" fill="#f1f2f2"/></g></svg>