<?xml version="1.0" encoding="utf-8"?>
<!-- Generator: Adobe Illustrator 23.0.3, SVG Export Plug-In . SVG Version: 6.00 Build 0)  -->
<svg version="1.1" xmlns="http://www.w3.org/2000/svg" xmlns:xlink="http://www.w3.org/1999/xlink" x="0px" y="0px"
	 viewBox="0 0 1902.8 443.2" style="enable-background:new 0 0 1902.8 443.2;" xml:space="preserve">
<style type="text/css">
	.st0{display:none;}
	.st1{display:inline;}
	.st2{fill:#FFFFFF;}
</style>
<g id="Icon">
	<g class="st0">
		<g class="st1">
			<path d="M650.3,319.4l-15.9,53.9h-45.3c3-8.9,65.8-216.7,69.1-226.6h59.9l72.8,226.6h-48.3l-17.2-53.9H650.3z M716.2,281.3
				c-13.9-46-23.8-78.4-29.1-99.6h-0.4c-5.3,25.1-15.5,60.5-27.5,99.6H716.2z"/>
			<path d="M820.7,201.9c20.2,72.8,31.8,112.8,34.4,132.3h0.3c4.6-21.2,20.2-80.7,34.4-132.3h45l-58.2,178.7
				c-17.9,54.9-39,61.2-68.2,61.2c-3.3,0-11.9-0.7-17.2-1.3v-36.7c4.6,0.7,11.9,1,15.5,1c14.2,0,21.8-8.9,26.1-23.5L772.9,202h47.8
				V201.9z"/>
			<path d="M1091,329c0,11.6,0.7,32.1,2.3,44.3h-39.4c-1.3-5-2.3-15.5-2.6-20.8c-6.9,13.9-23.2,23.8-48,23.8
				c-42.3,0-57.2-26.5-57.2-52.3c0-30.8,21.2-56.2,80.7-56.2h20.2v-12.6c0-13.9-4.3-24.8-24.5-24.8c-19.9,0-24.8,10.3-26.5,22.8
				h-43.3c1.7-27.1,17.9-54.6,70.5-54.6c40.4,0,67.8,14.2,67.8,56.6V329z M1048.3,296.6h-20.8c-30.8,0-36.4,12.6-36.4,23.8
				c0,11.9,6.9,21.8,24.2,21.8c26.8,0,33.1-17.9,33.1-42L1048.3,296.6L1048.3,296.6z"/>
			<path d="M1123.8,260.2c0-28.1,0-46.3-0.7-58.2h43.7c1,7.6,1.3,18.5,1.3,30.1c5.6-14.2,20.8-32.8,51.9-32.8V245
				c-35.4-0.7-51.3,11.2-51.3,50.6v77.7h-45L1123.8,260.2L1123.8,260.2z"/>
			<path d="M1253.4,143.7h16.9v214.1h115.5l-3.3,15.5h-129L1253.4,143.7L1253.4,143.7z"/>
			<path d="M1525.7,340.6c0,11.6,1.3,26.1,2.6,32.8h-15.9c-1-6.3-2.3-14.6-2.3-29.1c-6,18.5-23.5,32.1-52.6,32.1
				c-40,0-50.9-28.5-50.9-50c0-21.8,12.9-51.6,73.4-51.6h29.4v-18.5c0-17.2-4.6-37.1-38.4-37.1c-27.5,0-38,11.9-41.7,34.1h-16.2
				c3-28.8,19.2-48.6,58.9-48.6c31.4,0,53.6,14.2,53.6,49.6L1525.7,340.6L1525.7,340.6z M1509.8,289.3h-30.4
				c-46.6,0-55.6,18.9-55.6,36.7c0,19.2,11.6,35.1,35.4,35.1c36.7,0,50.6-25.1,50.6-68.5V289.3z"/>
			<path d="M1558.5,132.1h16.2V234c7.3-15.2,23.8-29.4,51.9-29.4c38.7,0,63.5,30.4,63.5,81.1c0,48.3-19.9,90.7-67.8,90.7
				c-26.5,0-41-11.6-47.6-27.1c0.3,7.3-0.3,16.2-1,24.2h-15.9c0.3-7.9,0.7-21.8,0.7-44.7L1558.5,132.1L1558.5,132.1z M1624.6,220.1
				c-37.1,0-50.9,23.8-50.9,67.8c0,44.3,9.6,72.8,50,72.8c33.7,0,49.3-32.1,49.3-74.4C1672.9,246.3,1656.4,220.1,1624.6,220.1z"/>
			<path d="M1728.2,327.7c4,22.2,20.5,34.4,43,34.4c27.8,0,37.4-16.5,37.4-32.8c0-17.9-11.2-27.8-41.4-35.7
				c-37.7-9.9-48.6-24.5-48.6-45.7c0-22.5,16.2-43.3,50.6-43.3c37.1,0,50.9,21.8,53.3,45.7h-16.2c-3.6-16.2-11.9-31.4-37.7-31.4
				c-23.2,0-33.1,11.6-33.1,28.1c0,14.9,6,22.8,36.4,31.1c40.4,10.9,53.6,24.2,53.6,50.3c0,28.5-21.8,48-54.9,48
				c-30.1,0-55.9-14.9-58.9-48.6L1728.2,327.7L1728.2,327.7z"/>
		</g>
	</g>
	<g id="Layer_3">
		<g>
			<g>
				<path class="st2" d="M20.2,443.7c-2,0-4-0.3-6.1-0.9C3.5,439.5-2.4,428.2,1,417.6C95.9,117.2,162.2,0.1,237.4,0h0.1
					c41.2,0,79.1,35.3,119.3,111c34.8,65.6,72.1,162.2,117.3,304c3.4,10.6-2.5,21.9-13,25.3c-10.6,3.4-21.9-2.5-25.3-13
					c-43.9-137.6-81.4-234.9-114.6-297.4c-39.3-74.1-67.2-89.7-83.8-89.7l0,0c-16.6,0-44.6,15.7-83.8,90.1
					c-33.2,63-70.6,160.9-114.4,299.3C36.6,438.2,28.7,443.7,20.2,443.7z"/>
			</g>
		</g>
	</g>
	<g>
		<g>
			<path class="st2" d="M20.2,443.7c-5.6,0-11.2-2.3-15.2-6.9c-7.3-8.4-6.4-21.1,2-28.4C132,300,239.9,223.9,327.6,182.2
				c41-19.5,77-31,107-34.1c32.1-3.4,57.8,2.6,76.3,17.8c17.8,14.7,36.8,44.9,26.2,106c-7.7,44.4-29.5,98-64.6,159.4
				c-5.5,9.6-17.8,13-27.4,7.4c-9.6-5.5-13-17.8-7.4-27.4c32.4-56.5,53.1-107,59.9-146.3c4-23.2,5.2-53.8-12.1-68.1
				c-22.1-18.2-73.3-10.3-140.5,21.6c-83.3,39.6-191,115.7-311.5,220.2C29.5,442,24.8,443.7,20.2,443.7z"/>
		</g>
	</g>
</g>
<g id="Ayar_Labs">
	<g>
		<path class="st2" d="M691.2,146.5l-88.9,234.5h42.4l19.7-54h89.8l20,54h42.3l-89.2-234.5H691.2z M677.8,290.4l31.3-86.5l31.8,86.5
			H677.8z"/>
		<polygon class="st2" points="868.4,321.8 823.4,216.4 823.2,216.1 781.5,216.1 849,368.8 819.3,442.8 859.5,442.8 950.6,216.8 
			950.9,216.1 910.3,216.1 		"/>
		<path class="st2" d="M1081.7,232.2c-12.4-11.6-29.1-18-47.2-18c-22.5,0-43.1,8.8-57.9,24.7c-14.5,15.7-22.6,37.2-22.6,60.7
			c0,48.2,33.8,83.3,80.4,83.3c19,0,35.6-6.2,48.1-17.9v16h37.3V216.1h-38.3V232.2z M1038.3,346.8c-26.9,0-45.6-19.4-45.6-47.2
			c0-28.6,19.2-49.3,45.6-49.3c25.7,0,44.4,20.8,44.4,49.3C1082.6,327,1064,346.8,1038.3,346.8z"/>
		<path class="st2" d="M1229.9,214.2c-16.2,0-31.6,6.4-43.4,18.1v-16.2h-38.3v164.9h38.3v-79.8c0-28.1,15.6-46.2,39.7-46.2
			c2.2,0,5.9,0.3,9.4,0.6l7,0.6v-40.8l-5.6-0.8C1234.4,214.2,1232.2,214.2,1229.9,214.2z"/>
		<polygon class="st2" points="1300.1,154.5 1271.3,154.5 1271.3,382 1412.1,382 1412.1,355.8 1300.1,355.8 		"/>
		<path class="st2" d="M1557.5,253.1c-11.2-18.4-31.5-29.4-54.4-29.4c-21.3,0-40.7,8.3-54.7,23.3c-13.8,14.9-21.4,35.5-21.4,57.9
			c0,23,7.6,42.8,21.9,57.3c13.8,14,33.1,21.7,54.2,21.7c23.9,0,43.5-10.4,55.3-29.2V382h25.9V225.6h-26.8V253.1z M1506.9,359.3
			c-31.1,0-52.8-22.4-52.8-54.4c0-32.8,22.2-56.6,52.8-56.6c29.4,0,51.5,24.3,51.5,56.6C1558.4,336.4,1536.8,359.3,1506.9,359.3z"/>
		<path class="st2" d="M1695.1,223.7c-23.4,0-42.9,10.1-55,28.3V146.2h-26.8V382h25.6v-27.9c12.1,19.2,32.1,29.8,56.3,29.8
			c21.1,0,40.4-7.7,54.2-21.7c14.3-14.5,21.9-34.3,21.9-57.3c0-22.5-7.6-43-21.4-57.9C1735.9,232,1716.5,223.7,1695.1,223.7z
			 M1691.6,359.3c-30.6,0-52.8-22.9-52.8-54.4c0-32.8,22.1-56.6,52.5-56.6c30.6,0,52.8,23.8,52.8,56.6
			C1744.1,336.4,1722,359.3,1691.6,359.3z"/>
		<path class="st2" d="M1856.1,292.6c-2.4-0.9-4.9-1.9-7.4-2.8l0,0c-18.4-6.6-29-12.6-29-23.8c0-11.9,12.1-18.3,23.4-18.3
			c15.3,0,29.1,5.5,40.8,16.5l0.4,0.4l14-21.3l-0.3-0.3c-16.1-13.1-33.3-19.3-53.9-19.3c-29.4,0-51.5,18.2-51.5,42.3
			c0,29,22.2,39.2,46.9,48c2,0.7,4,1.4,5.9,2.1c19.2,6.9,30.8,11.1,30.8,23.2c0,12.3-11.7,20.6-29.2,20.6
			c-19.6,0-33.7-5.6-47.2-18.7l-0.4-0.4l-13.7,20.6l0.3,0.3c16.8,14.7,37.3,22.1,60.9,22.1c34.2,0,56.3-17.6,56.3-44.8
			C1903.6,310.7,1884.7,303.5,1856.1,292.6z"/>
	</g>
</g>
</svg>
