<?xml version="1.0" encoding="UTF-8" standalone="no"?>
<svg
   xmlns:dc="http://purl.org/dc/elements/1.1/"
   xmlns:cc="http://creativecommons.org/ns#"
   xmlns:rdf="http://www.w3.org/1999/02/22-rdf-syntax-ns#"
   xmlns:svg="http://www.w3.org/2000/svg"
   xmlns="http://www.w3.org/2000/svg"
   height="443.70001"
   width="1903.1687"
   id="svg67"
   xml:space="preserve"
   viewBox="0 0 1903.1687 443.7"
   y="0px"
   x="0px"
   version="1.1"><metadata
   id="metadata73"><rdf:RDF><cc:Work
       rdf:about=""><dc:format>image/svg+xml</dc:format><dc:type
         rdf:resource="http://purl.org/dc/dcmitype/StillImage" /></cc:Work></rdf:RDF></metadata><defs
   id="defs71" />
<style
   id="style2"
   type="text/css">
	.st0{display:none;}
	.st1{display:inline;}
	.st2{fill:url(#SVGID_1_);}
	.st3{fill:url(#SVGID_2_);}
	.st4{fill:#081E3F;}
</style>
<g
   transform="translate(-0.03754708)"
   id="Icon">
	<g
   style="display:none"
   id="g22"
   class="st0">
		<g
   style="display:inline"
   id="g20"
   class="st1">
			<path
   id="path4"
   d="m 650.3,319.4 -15.9,53.9 h -45.3 c 3,-8.9 65.8,-216.7 69.1,-226.6 h 59.9 l 72.8,226.6 h -48.3 l -17.2,-53.9 z m 65.9,-38.1 c -13.9,-46 -23.8,-78.4 -29.1,-99.6 h -0.4 c -5.3,25.1 -15.5,60.5 -27.5,99.6 z" />
			<path
   id="path6"
   d="m 820.7,201.9 c 20.2,72.8 31.8,112.8 34.4,132.3 h 0.3 C 860,313 875.6,253.5 889.8,201.9 h 45 l -58.2,178.7 c -17.9,54.9 -39,61.2 -68.2,61.2 -3.3,0 -11.9,-0.7 -17.2,-1.3 v -36.7 c 4.6,0.7 11.9,1 15.5,1 14.2,0 21.8,-8.9 26.1,-23.5 L 772.9,202 h 47.8 z" />
			<path
   id="path8"
   d="m 1091,329 c 0,11.6 0.7,32.1 2.3,44.3 h -39.4 c -1.3,-5 -2.3,-15.5 -2.6,-20.8 -6.9,13.9 -23.2,23.8 -48,23.8 -42.3,0 -57.2,-26.5 -57.2,-52.3 0,-30.8 21.2,-56.2 80.7,-56.2 h 20.2 v -12.6 c 0,-13.9 -4.3,-24.8 -24.5,-24.8 -19.9,0 -24.8,10.3 -26.5,22.8 h -43.3 c 1.7,-27.1 17.9,-54.6 70.5,-54.6 40.4,0 67.8,14.2 67.8,56.6 z m -42.7,-32.4 h -20.8 c -30.8,0 -36.4,12.6 -36.4,23.8 0,11.9 6.9,21.8 24.2,21.8 26.8,0 33.1,-17.9 33.1,-42 z" />
			<path
   id="path10"
   d="m 1123.8,260.2 c 0,-28.1 0,-46.3 -0.7,-58.2 h 43.7 c 1,7.6 1.3,18.5 1.3,30.1 5.6,-14.2 20.8,-32.8 51.9,-32.8 V 245 c -35.4,-0.7 -51.3,11.2 -51.3,50.6 v 77.7 h -45 z" />
			<path
   id="path12"
   d="m 1253.4,143.7 h 16.9 v 214.1 h 115.5 l -3.3,15.5 h -129 z" />
			<path
   id="path14"
   d="m 1525.7,340.6 c 0,11.6 1.3,26.1 2.6,32.8 h -15.9 c -1,-6.3 -2.3,-14.6 -2.3,-29.1 -6,18.5 -23.5,32.1 -52.6,32.1 -40,0 -50.9,-28.5 -50.9,-50 0,-21.8 12.9,-51.6 73.4,-51.6 h 29.4 v -18.5 c 0,-17.2 -4.6,-37.1 -38.4,-37.1 -27.5,0 -38,11.9 -41.7,34.1 h -16.2 c 3,-28.8 19.2,-48.6 58.9,-48.6 31.4,0 53.6,14.2 53.6,49.6 z m -15.9,-51.3 h -30.4 c -46.6,0 -55.6,18.9 -55.6,36.7 0,19.2 11.6,35.1 35.4,35.1 36.7,0 50.6,-25.1 50.6,-68.5 z" />
			<path
   id="path16"
   d="m 1558.5,132.1 h 16.2 V 234 c 7.3,-15.2 23.8,-29.4 51.9,-29.4 38.7,0 63.5,30.4 63.5,81.1 0,48.3 -19.9,90.7 -67.8,90.7 -26.5,0 -41,-11.6 -47.6,-27.1 0.3,7.3 -0.3,16.2 -1,24.2 h -15.9 c 0.3,-7.9 0.7,-21.8 0.7,-44.7 z m 66.1,88 c -37.1,0 -50.9,23.8 -50.9,67.8 0,44.3 9.6,72.8 50,72.8 33.7,0 49.3,-32.1 49.3,-74.4 -0.1,-40 -16.6,-66.2 -48.4,-66.2 z" />
			<path
   id="path18"
   d="m 1728.2,327.7 c 4,22.2 20.5,34.4 43,34.4 27.8,0 37.4,-16.5 37.4,-32.8 0,-17.9 -11.2,-27.8 -41.4,-35.7 -37.7,-9.9 -48.6,-24.5 -48.6,-45.7 0,-22.5 16.2,-43.3 50.6,-43.3 37.1,0 50.9,21.8 53.3,45.7 h -16.2 c -3.6,-16.2 -11.9,-31.4 -37.7,-31.4 -23.2,0 -33.1,11.6 -33.1,28.1 0,14.9 6,22.8 36.4,31.1 40.4,10.9 53.6,24.2 53.6,50.3 0,28.5 -21.8,48 -54.9,48 -30.1,0 -55.9,-14.9 -58.9,-48.6 z" />
		</g>
	</g>
	<g
   id="Layer_3">
		<g
   id="g33">
			<g
   id="g31">
				
					<linearGradient
   gradientTransform="translate(0,-568)"
   y2="927.52991"
   x2="238.9422"
   y1="567.53003"
   x1="247.1239"
   gradientUnits="userSpaceOnUse"
   id="SVGID_1_">
					<stop
   id="stop24"
   style="stop-color:#02CCE0"
   offset="0" />
					<stop
   id="stop26"
   style="stop-color:#081E3F"
   offset="1" />
				</linearGradient>
				<path
   style="fill:url(#SVGID_1_)"
   id="path29"
   d="m 20.2,443.7 c -2,0 -4,-0.3 -6.1,-0.9 C 3.5,439.5 -2.4,428.2 1,417.6 95.9,117.2 162.2,0.1 237.4,0 h 0.1 c 41.2,0 79.1,35.3 119.3,111 34.8,65.6 72.1,162.2 117.3,304 3.4,10.6 -2.5,21.9 -13,25.3 -10.6,3.4 -21.9,-2.5 -25.3,-13 C 391.9,289.7 354.4,192.4 321.2,129.9 281.9,55.8 254,40.2 237.4,40.2 v 0 c -16.6,0 -44.6,15.7 -83.8,90.1 -33.2,63 -70.6,160.9 -114.4,299.3 -2.6,8.6 -10.5,14.1 -19,14.1 z"
   class="st2" />
			</g>
		</g>
	</g>
	<g
   id="g45">
		<g
   id="g43">
			
				<linearGradient
   gradientTransform="translate(0,-568)"
   y2="944.13593"
   x2="268.48969"
   y1="718.31769"
   x1="276.67151"
   gradientUnits="userSpaceOnUse"
   id="SVGID_2_">
				<stop
   id="stop36"
   style="stop-color:#02CCE0"
   offset="0" />
				<stop
   id="stop38"
   style="stop-color:#081E3F"
   offset="1" />
			</linearGradient>
			<path
   style="fill:url(#SVGID_2_)"
   id="path41"
   d="M 20.2,443.7 C 14.6,443.7 9,441.4 5,436.8 -2.3,428.4 -1.4,415.7 7,408.4 132,300 239.9,223.9 327.6,182.2 c 41,-19.5 77,-31 107,-34.1 32.1,-3.4 57.8,2.6 76.3,17.8 17.8,14.7 36.8,44.9 26.2,106 -7.7,44.4 -29.5,98 -64.6,159.4 -5.5,9.6 -17.8,13 -27.4,7.4 -9.6,-5.5 -13,-17.8 -7.4,-27.4 32.4,-56.5 53.1,-107 59.9,-146.3 4,-23.2 5.2,-53.8 -12.1,-68.1 -22.1,-18.2 -73.3,-10.3 -140.5,21.6 -83.3,39.6 -191,115.7 -311.5,220.2 -4,3.3 -8.7,5 -13.3,5 z"
   class="st3" />
		</g>
	</g>
</g>
<g
   transform="translate(-0.03754708)"
   id="Ayar_Labs">
	<g
   id="g64">
		<path
   style="fill:#081e3f"
   id="path48"
   d="M 691.2,146.5 602.3,381 h 42.4 l 19.7,-54 h 89.8 l 20,54 h 42.3 L 727.3,146.5 Z m -13.4,143.9 31.3,-86.5 31.8,86.5 z"
   class="st4" />
		<polygon
   style="fill:#081e3f"
   id="polygon50"
   points="823.2,216.1 781.5,216.1 849,368.8 819.3,442.8 859.5,442.8 950.6,216.8 950.9,216.1 910.3,216.1 868.4,321.8 823.4,216.4 "
   class="st4" />
		<path
   style="fill:#081e3f"
   id="path52"
   d="m 1081.7,232.2 c -12.4,-11.6 -29.1,-18 -47.2,-18 -22.5,0 -43.1,8.8 -57.9,24.7 -14.5,15.7 -22.6,37.2 -22.6,60.7 0,48.2 33.8,83.3 80.4,83.3 19,0 35.6,-6.2 48.1,-17.9 v 16 h 37.3 V 216.1 h -38.3 v 16.1 z m -43.4,114.6 c -26.9,0 -45.6,-19.4 -45.6,-47.2 0,-28.6 19.2,-49.3 45.6,-49.3 25.7,0 44.4,20.8 44.4,49.3 -0.1,27.4 -18.7,47.2 -44.4,47.2 z"
   class="st4" />
		<path
   style="fill:#081e3f"
   id="path54"
   d="m 1229.9,214.2 c -16.2,0 -31.6,6.4 -43.4,18.1 v -16.2 h -38.3 V 381 h 38.3 v -79.8 c 0,-28.1 15.6,-46.2 39.7,-46.2 2.2,0 5.9,0.3 9.4,0.6 l 7,0.6 v -40.8 l -5.6,-0.8 c -2.6,-0.4 -4.8,-0.4 -7.1,-0.4 z"
   class="st4" />
		<polygon
   style="fill:#081e3f"
   id="polygon56"
   points="1271.3,382 1412.1,382 1412.1,355.8 1300.1,355.8 1300.1,154.5 1271.3,154.5 "
   class="st4" />
		<path
   style="fill:#081e3f"
   id="path58"
   d="m 1557.5,253.1 c -11.2,-18.4 -31.5,-29.4 -54.4,-29.4 -21.3,0 -40.7,8.3 -54.7,23.3 -13.8,14.9 -21.4,35.5 -21.4,57.9 0,23 7.6,42.8 21.9,57.3 13.8,14 33.1,21.7 54.2,21.7 23.9,0 43.5,-10.4 55.3,-29.2 V 382 h 25.9 V 225.6 h -26.8 z m -50.6,106.2 c -31.1,0 -52.8,-22.4 -52.8,-54.4 0,-32.8 22.2,-56.6 52.8,-56.6 29.4,0 51.5,24.3 51.5,56.6 0,31.5 -21.6,54.4 -51.5,54.4 z"
   class="st4" />
		<path
   style="fill:#081e3f"
   id="path60"
   d="m 1695.1,223.7 c -23.4,0 -42.9,10.1 -55,28.3 V 146.2 h -26.8 V 382 h 25.6 v -27.9 c 12.1,19.2 32.1,29.8 56.3,29.8 21.1,0 40.4,-7.7 54.2,-21.7 14.3,-14.5 21.9,-34.3 21.9,-57.3 0,-22.5 -7.6,-43 -21.4,-57.9 -14,-15 -33.4,-23.3 -54.8,-23.3 z m -3.5,135.6 c -30.6,0 -52.8,-22.9 -52.8,-54.4 0,-32.8 22.1,-56.6 52.5,-56.6 30.6,0 52.8,23.8 52.8,56.6 0,31.5 -22.1,54.4 -52.5,54.4 z"
   class="st4" />
		<path
   style="fill:#081e3f"
   id="path62"
   d="m 1856.1,292.6 c -2.4,-0.9 -4.9,-1.9 -7.4,-2.8 v 0 c -18.4,-6.6 -29,-12.6 -29,-23.8 0,-11.9 12.1,-18.3 23.4,-18.3 15.3,0 29.1,5.5 40.8,16.5 l 0.4,0.4 14,-21.3 -0.3,-0.3 c -16.1,-13.1 -33.3,-19.3 -53.9,-19.3 -29.4,0 -51.5,18.2 -51.5,42.3 0,29 22.2,39.2 46.9,48 2,0.7 4,1.4 5.9,2.1 19.2,6.9 30.8,11.1 30.8,23.2 0,12.3 -11.7,20.6 -29.2,20.6 -19.6,0 -33.7,-5.6 -47.2,-18.7 l -0.4,-0.4 -13.7,20.6 0.3,0.3 c 16.8,14.7 37.3,22.1 60.9,22.1 34.2,0 56.3,-17.6 56.3,-44.8 0.4,-28.3 -18.5,-35.5 -47.1,-46.4 z"
   class="st4" />
	</g>
</g>
</svg>